<svg width="120" height="38" fill="none" xmlns="http://www.w3.org/2000/svg"><path d="M67.976 10.4c.07 0 .156 0 .225-.018 1.14-.12 2.16-1.05 2.333-2.203.173-1.137-.553-2.084-1.659-2.204-.069 0-.155-.018-.225-.018-.069 0-.155 0-.224.018-1.141.12-2.16 1.05-2.334 2.204-.086.602.07 1.136.398 1.55.346.412.864.67 1.486.67z" fill="#000"/><path d="M120 28.892c0-3.03-1.486-5.803-2.8-8.248-1.123-2.083-2.126-3.977-1.867-5.389.191-1.016.916-1.601 2.04-1.67.034 0 .069-.017.104-.017.051-.018.103-.052.155-.086a.266.266 0 00.104-.138c0-.017.017-.017.017-.034l.553-1.43c.052-.155.069-.258.018-.361a.621.621 0 00-.173-.207c-.104-.086-.277-.155-.502-.224a3.576 3.576 0 00-1.071-.172c-1.625 0-3.612.534-5.341 4.821-.069.172-3.405 8.781-3.508 9.057-.415 1.016-1.297 2.238-3.163 2.238-.813 0-1.469-.31-1.832-.826a2.83 2.83 0 01-.173-.31 2.14 2.14 0 01-.104-1.206c.035-.154.069-.327.121-.499a9.39 9.39 0 01.346-.947c1.279-3.254 5.824-14.842 7.224-18.406.173-.447-.069-.809-.553-.809h-1.607c-.173 0-.363.052-.519.138a1.38 1.38 0 00-.656.671c-.623 1.567-1.504 3.84-2.437 6.233-.726 1.843-1.469 3.754-2.161 5.493a7.848 7.848 0 00-.708-.982 8.356 8.356 0 00-.882-.86c-1.348-1.103-3.06-1.705-4.943-1.705-2.316 0-4.546.93-6.291 2.445-.07.051-.121.12-.19.172-.052.034-.087.086-.139.12a10.29 10.29 0 00-2.592 3.857c0 .017-.017.035-.017.07-.07.188-.121.378-.19.584-.104.362-.19.724-.243 1.102-.051.345-.086.69-.103 1.034-.035.998.12 1.98.432 2.875-.156.258-.363.5-.588.723a3.947 3.947 0 01-2.368 1.068h-.242a2.94 2.94 0 01-.968-.173 1.889 1.889 0 01-.88-.654c-.398-.568-.398-1.394-.035-2.341.086-.242.639-1.705 1.14-3.014.38-1.016.726-1.963.795-2.152.035-.103.104-.258.156-.448.086-.361.138-.86-.104-1.377a2.42 2.42 0 00-.363-.534c-.276-.292-.64-.465-.985-.602a3.736 3.736 0 00-.415-.138 7.826 7.826 0 01-.795-.293c-.017 0-.017-.017-.034-.017-.484-.207-2.818-1.291-2.818-3.357v-.259c-.034-.31-.138-.5-.276-.602-.017 0-.017-.018-.035-.018h-.017c-.017-.017-.035-.017-.052-.034h-.034c-.018 0-.018-.017-.035-.017a.72.72 0 00-.277-.052h-1.59c-.328 0-.691.172-.933.43a1.1 1.1 0 00-.242.38c-.346.877-.76 1.928-1.192 3.047-1.522 3.891-3.336 8.557-3.855 9.883l-.052.155c-.414 1.016-1.296 2.238-3.18 2.238-.812 0-1.486-.31-1.832-.826-.207-.31-.311-.706-.294-1.171a3.88 3.88 0 01.26-1.17c.328-.862 1.037-2.652 1.78-4.546.708-1.808 1.452-3.737 1.97-5.045.173-.448-.069-.81-.553-.81h-1.763c-.104 0-.225.018-.346.052h-.034c-.38.104-.76.362-.985.637-.83.999-1.902 1.808-3.077 2.393a11.111 11.111 0 01-3.647 1.102 6.706 6.706 0 00-.674-1.308c-.017-.017-.017-.034-.034-.052a7.5 7.5 0 00-.553-.74c-1.435-1.653-3.492-2.566-5.825-2.566-1.244 0-2.454.276-3.595.758.57-1.463 1.14-2.944 1.677-4.339.656-1.704 1.279-3.289 1.78-4.597a.637.637 0 000-.534c-.087-.172-.277-.275-.536-.275H48.17c-.19 0-.397.069-.587.172a1.21 1.21 0 00-.519.5c-.017.05-.052.085-.069.137a2832.624 2832.624 0 00-6.896 17.717c-.432 1.102-.726 1.894-.847 2.187-.415 1.016-1.296 2.238-3.163 2.238a3.68 3.68 0 01-.467-.034c-.587-.104-1.088-.362-1.365-.792-.052-.086-.104-.172-.155-.276-.156-.344-.208-.775-.121-1.24.034-.223.155-.585.293-.947.19-.516.38-1.015.38-1.015s.692-1.757 1.677-4.305c.104-.275.225-.568.346-.878a.244.244 0 00.034-.103c1.521-3.892 3.56-9.143 5.03-12.93A284.047 284.047 0 0143.174.825c.173-.447-.069-.809-.553-.809h-1.607c-.484 0-1.002.362-1.175.81-.19.482-1.884 4.855-3.785 9.745a5552.359 5552.359 0 00-5.531 14.24c-.07.154-.138.309-.225.464-.26.5-.657.981-1.21 1.326-.45.275-1.037.447-1.745.465-.657 0-1.21-.19-1.59-.551a3.883 3.883 0 01-.26-.276c-.259-.396-.363-.895-.259-1.48v-.018c.086-.5.76-2.255.76-2.29.433-1.102.934-2.41 1.47-3.805 1.78-4.563 3.958-10.21 5.358-13.774a.973.973 0 00.051-.31.553.553 0 00-.172-.362.648.648 0 00-.432-.138H30.66a1.24 1.24 0 00-.536.138c-.242.12-.449.31-.57.534-.017.034-.052.086-.07.12-.414 1.05-.863 2.222-1.347 3.461a400.205 400.205 0 01-1.642 4.201c-2.212 5.682-4.407 11.381-4.77 12.294a5.403 5.403 0 01-.467.878c-.519.74-1.348 1.36-2.714 1.36-.5 0-.95-.12-1.313-.327-.208-.138-.398-.293-.519-.5a1.972 1.972 0 01-.207-.43c-.104-.31-.121-.671-.052-1.067.086-.482.57-1.739.657-1.928 0-.018.017-.035.017-.035l3.301-8.471c.173-.448-.069-.81-.553-.81H18.27c-.294 0-.605.138-.847.345-.017 0-.017.017-.017.017a1.01 1.01 0 00-.294.43l-.329.862-.518 1.343-.311-.465a4.144 4.144 0 00-.346-.43 7.26 7.26 0 00-1.815-1.516c-1.158-.689-2.523-1.05-3.992-1.05-3.612 0-7.035 2.273-8.711 5.475a9.287 9.287 0 00-.95 2.858c-.364 2.342.241 4.563 1.693 6.233A6.946 6.946 0 003.7 29.116c1.158.671 2.506 1.033 3.958 1.033 2.333 0 4.597-.965 6.36-2.497.052.103.121.207.19.31.035.052.087.12.121.172 0 .017.017.017.017.035.035.051.087.103.121.154.035.035.07.07.087.104.017.034.052.052.086.086.052.052.104.103.139.155l.051.052c.07.051.121.12.19.172l.018.017c.587.5 1.33.895 2.195 1.102.017 0 .034.017.052.017l.259.052c.034 0 .069.017.12.017.07.017.14.017.226.034.069 0 .12.018.19.018.052 0 .103.017.172.017.121 0 .242.017.38.017.9 0 1.746-.172 2.524-.5.294-.12.57-.258.83-.43a2.15 2.15 0 00.259-.172c.346-.24.674-.5.968-.81.104.139.225.26.346.38.795.809 1.866 1.308 3.093 1.463.035 0 .087.017.121.017h.104c.07 0 .138.018.207.018h.311c1.798 0 3.388-.672 4.563-1.877.45.55 1.02.998 1.677 1.326.743.361 1.59.55 2.489.55a6.88 6.88 0 001.348-.137c1.884-.379 3.44-1.567 4.39-3.358.052.087.104.155.155.241l.208.31c.104.138.207.259.311.396 1.434 1.653 3.491 2.566 5.825 2.566 3.18 0 6.222-1.774 8.036-4.356.83-1.188 1.4-2.531 1.625-3.96.052-.362.087-.724.104-1.085.31-.035.622-.086.916-.155a13.29 13.29 0 003.681-1.274c-.034.086-.069.19-.104.275-.518 1.36-.985 2.531-1.227 3.168-.76 1.912-.64 3.771.346 5.217.363.534.83.982 1.365 1.326.865.551 1.902.861 3.042.861 2.748 0 5.013-1.567 6.084-4.218.138-.345.415-1.068.778-2.015.76-1.945 1.901-4.872 2.938-7.524.087-.241.19-.482.277-.706.898 1.12 2.108 1.963 3.284 2.462.069.035.12.052.19.086.138.052.276.104.397.155-.587 1.584-1.52 4.098-1.642 4.374-.466 1.188-.605 2.341-.397 3.392.12.654.38 1.274.743 1.825.242.344.518.654.83.93.864.74 1.987 1.187 3.232 1.256.12 0 .224.018.345.018.19 0 .38-.018.57-.035.035 0 .087 0 .122-.017h.051a6.878 6.878 0 002.265-.672 7.168 7.168 0 001.935-1.412c1.09 1.068 2.49 1.757 4.062 2.015.432.069.882.103 1.348.103.588 0 1.175-.069 1.746-.172 1.573-.31 3.059-1.05 4.303-2.066.121-.086.225-.19.329-.293.069.12.138.241.207.345.605.878 1.469 1.515 2.489 1.876.052.018.104.035.138.052.052.017.121.034.173.052.069.017.121.034.19.051.052.017.104.017.156.035.069.017.121.034.19.034.052.017.104.017.155.035.07.017.121.017.191.017.069 0 .138.017.207.017.052 0 .104.017.156.017.121 0 .242.018.38.018 2.748 0 5.012-1.567 6.084-4.219.051-.155 1.054-2.651 1.866-4.718.242-.62.467-1.205.64-1.67.086.19.19.396.276.586.329.654.674 1.325 1.037 2.014.294.551.605 1.12.882 1.688.847 1.687 1.555 3.409 1.555 5.096 0 4.976-3.387 5.854-4.424 6.01a1.556 1.556 0 00-1.314 1.29c-.017.155-.034.31 0 .465 0 .052.017.104.035.138a1.566 1.566 0 001.503 1.188h.242a8.646 8.646 0 002.489-.775c2.403-1.343 4.563-3.96 4.563-8.42zm-19.911-7.559c-.293 2.032-1.59 3.822-3.284 4.838a.131.131 0 01-.069.035s-.017 0-.017.017a5.89 5.89 0 01-2.938.81c-.484 0-.95-.07-1.383-.207a4.11 4.11 0 01-1.936-1.275c-.5-.602-.812-1.343-.933-2.169v-.017c-.07-.5-.07-1.016.017-1.55.121-.792.38-1.55.778-2.238a7.125 7.125 0 012.091-2.325c1.02-.706 2.213-1.136 3.44-1.136.83 0 1.59.19 2.23.568.414.241.777.551 1.088.913.156.19.294.378.398.585.397.689.587 1.498.587 2.359 0 .258-.017.517-.069.792zm-53.147 5.544c-.847-.224-1.572-.671-2.108-1.343-.813-.981-1.141-2.307-.934-3.736v-.017a5.29 5.29 0 01.225-.93c.121-.31.242-.637.38-.964.018-.052.052-.086.07-.138.051-.086.086-.172.138-.258.017-.035.034-.052.051-.086a7.302 7.302 0 011.383-1.688c1.14-.998 2.575-1.618 4.062-1.618a4.69 4.69 0 011.866.379c.57.258 1.055.62 1.452 1.101.813.982 1.141 2.308.934 3.754-.467 3.134-3.301 5.7-6.326 5.7-.415 0-.813-.053-1.193-.156zm-39.113.155c-1.365 0-2.54-.534-3.335-1.48a3.5 3.5 0 01-.225-.31c-.657-.948-.899-2.153-.709-3.444.467-3.134 3.319-5.7 6.36-5.7 1.366 0 2.541.535 3.337 1.482.812.98 1.158 2.307.933 3.753a5.414 5.414 0 01-.156.723c-.76 2.79-3.405 4.976-6.205 4.976z" fill="#000"/></svg>